ply
format ascii 1.0
comment Created by Blender 2.77 (sub 0) - www.blender.org, source file: ''
element vertex 39
property float x
property float y
property float z
property float nx
property float ny
property float nz
property float s
property float t
element face 13
property list uchar uint vertex_indices
end_header
1.215195 1.656568 -3.686274 -0.327141 -0.393488 -0.859154 0.678391 0.466212
1.545864 1.318406 -3.657307 -0.327141 -0.393488 -0.859154 0.728375 0.407328
1.244229 1.388529 -3.574569 -0.327141 -0.393488 -0.859154 0.682779 0.419539
1.540343 1.600214 -3.731129 -0.336327 -0.244806 -0.909370 0.727541 0.456399
1.805305 1.258421 -3.737112 -0.336327 -0.244806 -0.909370 0.767593 0.396883
1.545864 1.318406 -3.657307 -0.336327 -0.244806 -0.909370 0.728375 0.407328
1.470414 1.109677 -3.463573 -0.359136 -0.561857 -0.745210 0.717761 0.369088
1.545864 1.318406 -3.657307 -0.359136 -0.561857 -0.745210 0.728375 0.407328
1.805305 1.258421 -3.737112 -0.359136 -0.561857 -0.745210 0.767593 0.396883
1.470414 1.109677 -3.463573 -0.337977 -0.571722 -0.747600 0.717761 0.369088
1.244229 1.388529 -3.574569 -0.337977 -0.571722 -0.747600 0.682779 0.419539
1.545864 1.318406 -3.657307 -0.337977 -0.571722 -0.747600 0.728375 0.407328
1.545864 1.318406 -3.657307 -0.175070 -0.252703 -0.951573 0.728375 0.407328
1.215195 1.656568 -3.686274 -0.175070 -0.252703 -0.951573 0.678391 0.466212
1.540343 1.600214 -3.731129 -0.175070 -0.252703 -0.951573 0.727541 0.456399
1.466682 1.418485 -3.477633 0.268921 0.333846 0.903453 0.716406 0.424755
1.654505 1.111680 -3.420169 0.268921 0.333846 0.903453 0.744798 0.371331
1.760245 1.284640 -3.515556 0.268921 0.333846 0.903453 0.760782 0.401448
1.664541 1.455971 -3.534798 0.262747 0.079544 0.961580 0.746315 0.431282
1.509554 1.539436 -3.499353 0.262747 0.079544 0.961580 0.722887 0.445816
1.466682 1.418485 -3.477633 0.262747 0.079544 0.961580 0.716406 0.424755
1.340113 1.586342 -3.436827 0.355980 0.041467 0.933573 0.697273 0.453984
1.466682 1.418485 -3.477633 0.355980 0.041467 0.933573 0.716406 0.424755
1.509554 1.539436 -3.499353 0.355980 0.041467 0.933573 0.722887 0.445816
1.278746 1.316635 -3.409294 0.328610 0.027096 0.944077 0.687997 0.407019
1.466682 1.418485 -3.477633 0.328610 0.027096 0.944077 0.716406 0.424755
1.308416 1.452127 -3.423510 0.328610 0.027096 0.944077 0.692482 0.430613
1.278746 1.316635 -3.409294 0.245627 0.185203 0.951508 0.687997 0.407019
1.386660 1.174470 -3.409480 0.245627 0.185203 0.951508 0.704310 0.382264
1.466682 1.418485 -3.477633 0.245627 0.185203 0.951508 0.716406 0.424755
1.654505 1.111680 -3.420169 0.094574 0.238907 0.966426 0.744798 0.371331
1.466682 1.418485 -3.477633 0.094574 0.238907 0.966426 0.716406 0.424755
1.386660 1.174470 -3.409480 0.094574 0.238907 0.966426 0.704310 0.382264
1.664541 1.455971 -3.534798 0.228710 0.233884 0.944981 0.746315 0.431282
1.466682 1.418485 -3.477633 0.228710 0.233884 0.944981 0.716406 0.424755
1.760245 1.284640 -3.515556 0.228710 0.233884 0.944981 0.760782 0.401448
1.466682 1.418485 -3.477633 0.326691 0.016608 0.944985 0.716406 0.424755
1.340113 1.586342 -3.436827 0.326691 0.016608 0.944985 0.697273 0.453984
1.308416 1.452127 -3.423510 0.326691 0.016608 0.944985 0.692482 0.430613
3 0 1 2
3 3 4 5
3 6 7 8
3 9 10 11
3 12 13 14
3 15 16 17
3 18 19 20
3 21 22 23
3 24 25 26
3 27 28 29
3 30 31 32
3 33 34 35
3 36 37 38
