ply
format ascii 1.0
comment Created by Blender 2.77 (sub 0) - www.blender.org, source file: ''
element vertex 27
property float x
property float y
property float z
property float nx
property float ny
property float nz
property float s
property float t
element face 9
property list uchar uint vertex_indices
end_header
1.637597 1.876165 -3.501034 0.210583 0.126349 0.969376 0.742242 0.504450
1.195935 1.979914 -3.418612 0.210583 0.126349 0.969376 0.675479 0.522516
1.173094 1.701973 -3.377423 0.210583 0.126349 0.969376 0.672026 0.474118
1.340113 1.586342 -3.436827 0.027281 -0.216663 0.975865 0.697273 0.453984
1.466682 1.418485 -3.477633 0.027281 -0.216663 0.975865 0.716406 0.424755
1.760245 1.284640 -3.515556 0.027281 -0.216663 0.975865 0.760782 0.401448
1.637597 1.876165 -3.501034 0.284302 -0.080163 0.955378 0.742242 0.504450
1.173094 1.701973 -3.377423 0.284302 -0.080163 0.955378 0.672026 0.474118
1.340113 1.586342 -3.436827 0.284302 -0.080163 0.955378 0.697273 0.453984
1.760245 1.284640 -3.515556 0.277775 0.034025 0.960043 0.760782 0.401448
1.865439 1.463961 -3.552348 0.277775 0.034025 0.960043 0.776683 0.432673
1.637597 1.876165 -3.501034 0.277775 0.034025 0.960043 0.742242 0.504450
1.340113 1.586342 -3.436827 0.195581 0.016479 0.980549 0.697273 0.453984
1.760245 1.284640 -3.515556 0.195581 0.016479 0.980549 0.760782 0.401448
1.637597 1.876165 -3.501034 0.195581 0.016479 0.980549 0.742242 0.504450
1.545864 1.318406 -3.657307 0.065061 -0.021839 -0.997642 0.728375 0.407328
1.215195 1.656568 -3.686274 0.065061 -0.021839 -0.997642 0.678391 0.466212
1.157894 1.984566 -3.697191 0.065061 -0.021839 -0.997642 0.669729 0.523326
1.157894 1.984566 -3.697191 -0.100674 -0.065381 -0.992769 0.669729 0.523326
1.537054 1.920450 -3.731418 -0.100674 -0.065381 -0.992769 0.727043 0.512162
1.855385 1.521227 -3.737407 -0.100674 -0.065381 -0.992769 0.775163 0.442645
1.855385 1.521227 -3.737407 -0.282438 0.052746 -0.957834 0.775163 0.442645
1.805305 1.258421 -3.737112 -0.282438 0.052746 -0.957834 0.767593 0.396883
1.545864 1.318406 -3.657307 -0.282438 0.052746 -0.957834 0.728375 0.407328
1.157894 1.984566 -3.697191 -0.155192 -0.148855 -0.976605 0.669729 0.523326
1.855385 1.521227 -3.737407 -0.155192 -0.148855 -0.976605 0.775163 0.442645
1.545864 1.318406 -3.657307 -0.155192 -0.148855 -0.976605 0.728375 0.407328
3 0 1 2
3 3 4 5
3 6 7 8
3 9 10 11
3 12 13 14
3 15 16 17
3 18 19 20
3 21 22 23
3 24 25 26
