ply
format ascii 1.0
comment Created by Blender 2.77 (sub 0) - www.blender.org, source file: ''
element vertex 148
property float x
property float y
property float z
property float nx
property float ny
property float nz
property float s
property float t
element face 190
property list uchar uint vertex_indices
end_header
0.123334 -4.597959 -1.505853 0.435743 -0.899167 0.039705 0.230558 1.352900
0.145624 -4.585454 -1.518768 0.446974 -0.889492 -0.094699 0.235561 1.302903
0.130202 -4.564419 -1.421172 -0.009919 -0.957091 0.289560 0.253556 1.343801
0.315743 -4.468222 -1.477648 0.587329 -0.769189 -0.251595 0.260025 1.154319
0.238036 -4.505908 -1.565538 0.578356 -0.815455 -0.021729 0.298605 1.129453
0.299479 -4.475614 -1.555611 0.443159 -0.896390 -0.007447 0.322474 1.066998
0.190511 -4.548274 -1.543867 0.579608 -0.799524 -0.157323 0.259487 1.222482
0.033178 -4.615803 -1.613996 0.009949 -0.974120 0.225654 0.491248 1.328296
0.061123 -4.616634 -1.621142 0.182592 -0.949950 0.253426 0.398195 1.316837
0.023198 -4.609252 -1.532862 0.037324 -0.993561 -0.106815 0.527775 1.372603
0.139918 -4.594779 -1.681856 0.555986 -0.799738 0.226386 0.304168 1.197822
0.127299 -4.585828 -1.581446 0.419141 -0.906888 0.042970 0.301464 1.239623
0.092732 -4.615651 -1.650629 0.392010 -0.882046 0.261269 0.339449 1.280666
0.164786 -4.566597 -1.626888 0.553178 -0.825709 0.110080 0.303173 1.192445
0.276871 -4.524610 -1.716056 0.458327 -0.852535 0.251198 0.313821 0.921059
0.286794 -4.481379 -1.616421 0.512070 -0.845820 0.149358 0.329301 1.013100
0.213521 -4.533923 -1.628897 0.553056 -0.819697 0.148839 0.322408 1.094118
0.194375 -4.564843 -1.711709 0.499893 -0.839503 0.212867 0.300751 1.088483
0.046187 -4.707187 -1.801212 0.191961 -0.858333 0.475784 -0.283652 1.430913
0.050332 -4.652414 -1.711555 0.266030 -0.870479 0.414045 0.386247 1.370274
0.009559 -4.661313 -1.713076 -0.416852 -0.821253 0.389538 0.681980 1.389012
0.002738 -4.739366 -1.847259 0.506974 -0.777459 0.372112 1.352168 1.158449
0.009411 -4.719073 -1.837359 0.004486 -0.882077 0.471023 1.317327 1.274015
0.002902 -4.648467 -1.708109 -0.150487 -0.898221 0.412946 0.665836 1.345732
-0.002113 -4.664733 -1.718254 0.387616 -0.811518 0.437178 0.760429 1.374901
0.208894 -4.617964 -1.889463 0.736045 -0.561083 0.378643 0.099545 0.572660
0.180160 -4.596967 -1.787306 0.626118 -0.725883 0.284677 0.209460 0.947221
0.150890 -4.627429 -1.781754 0.679098 -0.644063 0.352062 0.174994 1.113523
0.192292 -4.659286 -1.905879 0.740623 -0.509964 0.437452 0.052671 0.482726
0.160410 -4.673066 -1.872164 0.648549 -0.627552 0.430677 -0.007396 0.705725
0.320872 -4.572814 -1.969674 0.473830 -0.787408 0.394238 0.170517 0.439585
0.301826 -4.551949 -1.859898 0.448653 -0.852351 0.268624 0.244464 0.719324
0.237388 -4.587374 -1.892524 0.561754 -0.763512 0.318491 0.208011 0.803726
0.285102 -4.612736 -1.988096 0.480087 -0.743126 0.466048 0.114647 0.314327
0.248069 -4.616075 -1.957959 0.608844 -0.652699 0.450819 0.075454 0.378169
0.046574 -4.825382 -1.979062 0.191656 -0.647145 0.737846 1.516478 0.408431
0.060502 -4.750411 -1.902594 0.135014 -0.839198 0.526749 1.579411 0.853366
0.011951 -4.757584 -1.898587 -0.376202 -0.739769 0.557817 1.424592 0.866872
-0.014933 -4.889250 -2.011481 0.066988 -0.650502 0.756523 1.435189 0.316304
0.016121 -4.888380 -2.021690 0.178869 -0.624439 0.760308 1.473658 0.278977
0.001454 -4.757568 -1.897753 0.544847 -0.653157 0.525834 1.393958 0.864169
0.066858 -4.875936 -2.012619 0.108585 -0.590075 0.799982 -0.459729 0.301154
0.110629 -4.869757 -2.021357 0.304392 -0.570116 0.763054 -0.400083 0.268684
0.083718 -4.767695 -1.933855 0.285226 -0.687551 0.667745 -0.380608 0.622125
0.168084 -4.797005 -2.014112 0.575793 -0.480270 0.661641 -0.272446 0.257550
0.156533 -4.722845 -1.934810 0.552568 -0.627338 0.548723 -0.157776 0.546050
0.113710 -4.735330 -1.915757 0.500778 -0.701621 0.506851 -0.257397 0.719079
0.143993 -4.862754 -2.030991 0.444197 -0.500900 0.742790 -0.354032 0.236883
0.172881 -4.857665 -2.047527 0.606677 -0.389874 0.692770 -0.314595 0.188925
0.108176 -4.760203 -1.940783 0.490036 -0.574694 0.655385 -0.319304 0.568542
-0.096283 -4.600616 -1.439238 -0.397015 -0.912931 0.094363 0.836166 1.302603
-0.045401 -4.617554 -1.449030 -0.257149 -0.965697 0.035249 0.795769 1.361946
-0.101356 -4.590941 -1.416965 -0.418775 -0.874630 0.244148 0.822955 1.296124
-0.067012 -4.611284 -1.619834 -0.226325 -0.939604 0.256722 0.754696 1.246952
-0.096266 -4.591628 -1.516878 -0.342936 -0.939329 0.000824 0.793285 1.277683
-0.147667 -4.568050 -1.530285 -0.576769 -0.815180 0.052461 0.810655 1.195554
-0.140372 -4.594553 -1.677427 -0.592822 -0.762230 0.259804 0.779959 1.112368
-0.105025 -4.600358 -1.631175 -0.448134 -0.865688 0.222968 0.784490 1.176909
-0.176678 -4.538518 -1.566419 -0.671194 -0.731254 0.121342 0.796130 1.120503
-0.015276 -4.610626 -1.584276 0.212775 -0.976959 0.015534 0.640852 1.337308
-0.004344 -4.610616 -1.533646 0.325236 -0.940031 -0.102512 0.622722 1.366035
-0.033632 -4.606563 -1.572171 -0.091220 -0.992645 0.079531 0.685983 1.324970
-0.011340 -4.613357 -1.609862 0.295663 -0.918638 0.261940 0.632465 1.312670
-0.130688 -4.699351 -1.877658 -0.421857 -0.752495 0.505692 1.058592 0.772694
-0.112810 -4.638472 -1.734140 -0.461165 -0.804773 0.373669 0.883528 1.074853
-0.165431 -4.629787 -1.793574 -0.630573 -0.678976 0.375896 0.894236 0.877594
-0.159885 -4.694854 -1.889592 -0.527329 -0.685202 0.502335 1.062439 0.665218
-0.189296 -4.677089 -1.904131 -0.714713 -0.559832 0.419172 1.002417 0.584847
-0.095432 -4.718504 -1.874130 -0.383496 -0.773431 0.504654 1.118076 0.852073
-0.050742 -4.728197 -1.849553 -0.264809 -0.841548 0.470748 1.177943 1.047376
-0.072164 -4.657996 -1.736209 -0.311350 -0.855464 0.413739 0.875736 1.195402
0.227219 -4.760589 -2.058979 0.822840 -0.378552 0.423780 -0.158578 0.124866
0.232207 -4.703007 -2.020403 0.786859 -0.438704 0.433973 -0.019572 0.256377
0.201141 -4.708460 -1.971237 0.716636 -0.501358 0.484817 -0.081106 0.373185
0.197625 -4.843734 -2.066447 0.771477 -0.308359 0.556505 -0.274837 0.141651
0.219604 -4.822357 -2.096676 0.859493 -0.314737 0.402722 -0.233005 0.080984
0.190895 -4.756692 -2.004183 0.673055 -0.476730 0.565386 -0.160213 0.336682
0.244965 -4.799072 -2.143516 0.896786 -0.313089 0.312601 -0.186610 0.009580
0.270535 -4.779348 -2.202137 0.851833 -0.443129 0.279275 -0.146864 -0.052572
0.257286 -4.740402 -2.118701 0.829066 -0.445509 0.337840 -0.036306 0.149871
0.348833 -4.722511 -2.200187 0.186865 -0.919309 0.346294 -0.027921 -0.053990
0.340692 -4.678923 -2.133068 0.487930 -0.704886 0.514756 0.086540 0.065811
0.288546 -4.680582 -2.086127 0.597583 -0.660360 0.454695 0.041121 0.146951
0.287945 -4.776931 -2.275106 0.747826 -0.596728 0.290872 -0.135124 -0.108232
0.341646 -4.782766 -2.419608 0.474807 -0.829035 0.295267 -0.125624 -0.144750
0.296748 -4.726549 -2.189577 0.531541 -0.771477 0.349620 -0.011702 0.093361
-0.000374 -4.609284 -1.535064 -0.779077 -0.626850 -0.006867 0.607005 1.364453
-0.002755 -4.612273 -1.562750 0.152928 -0.987365 0.040803 0.608295 1.359270
-0.177507 -4.535135 -1.490205 -0.635090 -0.753502 -0.169805 0.813679 1.178930
-0.131871 -4.576881 -1.432136 -0.561052 -0.827113 0.032777 0.836668 1.251754
-0.237615 -4.524610 -1.716056 -0.666005 -0.706381 0.239631 0.758973 0.996225
-0.174680 -4.573979 -1.704882 -0.663991 -0.699088 0.265236 0.766385 1.057117
-0.247537 -4.481379 -1.616421 -0.620441 -0.768487 0.156407 0.744725 1.003988
-0.281615 -4.572814 -1.969674 -0.782464 -0.515854 0.348735 0.889830 0.375693
-0.229465 -4.643536 -1.941645 -0.789605 -0.500229 0.355296 0.974474 0.432770
-0.207812 -4.599944 -1.833546 -0.729423 -0.602985 0.322947 0.874867 0.747988
-0.265906 -4.555603 -1.879123 -0.744743 -0.594989 0.302194 0.812693 0.664505
-0.230381 -4.745115 -2.085322 -0.781060 -0.532334 0.326395 1.067065 0.226067
-0.297616 -4.658480 -2.101588 -0.772057 -0.496139 0.397168 0.964812 0.160757
-0.309577 -4.722511 -2.200187 -0.708243 -0.661855 0.245521 1.056044 -0.009276
-0.157305 -4.877362 -2.110796 -0.803247 -0.527085 0.277322 1.274698 0.114418
-0.123497 -4.889247 -2.054540 -0.603290 -0.574419 0.553178 1.312740 0.206285
-0.154793 -4.755268 -1.952685 -0.543443 -0.616382 0.569811 1.160775 0.493524
-0.194066 -4.747185 -1.991099 -0.758751 -0.514847 0.398999 1.116673 0.389065
-0.092351 -4.890746 -2.028790 -0.373577 -0.584460 0.720267 1.347262 0.273054
-0.055172 -4.890317 -2.014645 -0.219672 -0.605213 0.765099 1.388084 0.310982
-0.051257 -4.768953 -1.918581 -0.225257 -0.721885 0.654286 1.295830 0.690956
-0.108189 -4.761876 -1.937070 -0.365154 -0.660878 0.655629 1.209990 0.569752
0.175735 -4.590250 -1.419190 -0.004151 -0.998871 -0.046846 0.249998 1.297913
-0.007265 -4.600022 -1.608837 -0.279916 -0.949583 0.141087 0.602189 1.287135
0.001679 -4.597544 -1.531488 -0.368206 -0.923124 -0.110569 0.588482 1.344112
0.065491 -4.601548 -1.544155 0.243782 -0.965850 -0.087466 0.392065 1.344454
0.228636 -4.544103 -1.710471 0.436659 -0.871120 0.224586 0.320013 0.952833
0.077919 -4.716279 -1.837058 0.316752 -0.833216 0.453169 -0.233423 1.232064
0.131969 -4.694238 -1.864697 0.538224 -0.719565 0.438734 -0.077784 0.964156
0.113885 -4.649263 -1.760054 0.526872 -0.752190 0.395672 0.243307 1.268523
0.075219 -4.647623 -1.719150 0.377758 -0.837703 0.394330 0.287207 1.318196
0.015128 -4.729823 -1.836142 -0.394848 -0.825587 0.403088 1.380208 1.249799
0.046187 -4.707187 -1.801212 0.191961 -0.858333 0.475784 1.716348 1.430913
0.009559 -4.661313 -1.713076 -0.416852 -0.821253 0.389538 2.681980 1.389012
0.060502 -4.750411 -1.902594 0.135014 -0.839198 0.526749 -0.420589 0.853366
0.046574 -4.825382 -1.979062 0.191656 -0.647145 0.737846 -0.483522 0.408431
-0.049949 -4.611623 -1.428646 -0.258461 -0.941496 0.216254 0.793405 1.355416
-0.050149 -4.601658 -1.516117 -0.222236 -0.973174 -0.059297 0.736367 1.331296
-0.141726 -4.569336 -1.412921 -0.458113 -0.884152 -0.091311 0.828854 1.241936
-0.208893 -4.495566 -1.510082 -0.596515 -0.786798 -0.158422 0.790557 1.102818
-0.276486 -4.468222 -1.477648 -0.477187 -0.826960 -0.297281 0.762095 1.021183
0.226754 -4.574288 -1.412857 0.437269 -0.865658 -0.243690 0.237898 1.279680
0.066858 -4.875936 -2.012619 0.108585 -0.590075 0.799982 1.540271 0.301154
0.008730 -4.622170 -1.438256 0.493545 -0.859676 0.131626 0.685760 1.411056
0.006389 -4.628352 -1.469965 -0.344279 -0.933103 0.103702 0.695031 1.421362
0.016293 -4.607746 -1.436982 0.393200 -0.826716 0.402326 0.597497 1.419617
0.265951 -4.550231 -1.416607 0.567400 -0.748772 -0.342509 0.238793 1.259995
0.001854 -4.631530 -1.649847 0.221503 -0.876400 0.427595 0.628681 1.336474
0.003345 -4.623403 -1.464790 -0.166540 -0.983947 -0.064058 0.687572 1.409310
-0.001369 -4.627833 -1.470275 0.213721 -0.971129 -0.105686 0.724754 1.416527
0.044645 -4.624523 -1.477330 0.188116 -0.974944 0.118625 0.490581 1.429065
0.085805 -4.615556 -1.489211 0.299509 -0.951506 0.069948 0.302164 1.403357
0.085280 -4.594453 -1.557807 0.285775 -0.958220 -0.011353 0.349110 1.313682
0.001653 -4.613683 -1.506252 -0.742912 -0.652364 -0.149876 0.637008 1.396742
-0.302583 -4.742912 -2.318171 -0.740196 -0.645985 0.186560 1.082838 -0.119706
-0.302390 -4.782766 -2.419608 -0.761742 -0.603442 0.235633 1.126774 -0.171859
-0.188458 -4.835917 -2.187415 -0.772942 -0.610675 0.172002 1.214782 -0.004658
-0.225352 -4.550231 -1.416607 -0.364055 -0.828883 -0.424696 0.808721 1.157331
-0.245903 -4.520256 -1.440847 -0.484024 -0.709708 -0.511826 0.789080 1.097877
0.004646 -4.742936 -1.895261 0.150548 -0.854274 0.497482 1.385819 0.914751
-0.003459 -4.613922 -1.610543 -0.675253 -0.727836 0.119327 0.610175 1.317664
0.033792 -4.595781 -1.422587 0.247291 -0.843684 0.476424 0.330405 1.390845
3 0 1 2
3 3 4 5
3 6 4 3
3 7 8 9
3 10 11 12
3 13 11 10
3 14 15 16
3 16 13 17
3 18 19 20
4 21 22 23 24
4 25 26 27 28
3 29 28 27
4 30 31 32 33
3 34 33 32
3 35 36 37
3 38 39 40
3 41 42 43
3 44 45 46
3 47 48 49
3 50 51 52
3 53 54 55
4 56 57 55 58
4 59 60 61 62
4 63 64 65 66
3 67 66 65
3 68 69 70
3 71 72 73
3 74 75 76
3 77 78 79
3 80 81 82
3 83 84 85
4 7 9 86 87
3 88 55 89
4 90 91 58 92
4 93 94 95 96
3 97 98 99
4 100 101 102 103
4 104 105 106 107
3 2 1 108
3 11 1 0
3 16 15 4
3 19 8 7
3 60 59 62
3 62 109 87
3 87 110 60
3 62 87 60
3 111 9 8
3 27 10 12
3 26 10 27
4 31 14 112 17
3 19 113 114
3 114 115 116
3 114 116 19
3 117 118 119
3 37 36 117
3 69 21 24
4 46 45 114 113
4 34 32 26 25
3 73 72 28
4 82 81 33 34
4 41 43 120 121
3 39 35 37
4 106 105 38 40
4 47 49 43 42
4 74 76 45 44
4 49 48 44 46
3 52 51 122
3 123 60 51
3 124 89 52
3 123 54 53
3 57 53 55
3 64 57 56
3 58 91 56
4 68 70 64 63
4 103 102 66 67
4 95 94 67 65
4 107 106 69 68
4 77 79 72 71
4 76 75 71 73
4 83 85 79 78
3 85 84 80
3 92 125 126
4 96 95 91 90
4 98 97 94 93
3 100 103 97
4 104 107 102 101
3 125 58 88
3 54 123 50
3 127 108 1
3 5 4 15
3 65 56 91
3 53 57 64
3 12 8 19
4 67 94 97 103
3 107 68 63
3 63 66 102
3 63 102 107
4 40 21 69 106
3 118 117 36
3 29 114 45
3 72 82 34
3 34 25 28
3 34 28 72
3 30 33 81
3 128 35 39
3 74 44 48
3 77 71 75
3 129 122 51
3 129 130 131
3 16 6 13
3 132 6 3
3 62 53 24
3 55 54 89
3 133 109 62
3 62 24 23
3 62 23 133
3 53 70 24
3 6 1 11
4 60 110 134 135
3 24 70 69
3 9 136 130
3 1 6 132
4 129 135 134 130
3 64 70 53
3 1 132 127
4 137 136 9 111
3 91 95 65
3 7 20 19
4 19 116 115 12
3 19 18 113
3 28 29 73
4 45 76 73 29
3 8 12 138
3 53 62 61
3 51 50 123
3 50 89 54
4 86 9 130 139
3 6 11 13
4 43 49 46 113
4 113 18 120 43
3 140 141 142
3 142 99 140
3 99 142 97
3 97 142 100
3 80 82 85
4 72 79 85 82
3 4 6 16
3 11 0 138
3 12 11 138
3 27 12 115
4 31 17 26 32
4 16 17 112 14
3 10 26 17
3 13 10 17
3 56 65 64
3 88 124 143
3 143 144 125
3 126 125 144
3 88 58 55
3 124 88 89
3 52 89 50
3 125 92 58
3 143 125 88
3 115 29 27
3 29 115 114
4 21 40 145 22
3 39 145 40
4 146 133 20 7
3 146 7 87
3 131 130 136
3 135 129 51
3 60 135 51
3 147 136 137
3 145 39 37
4 22 145 37 117
4 23 22 117 20
3 133 23 20
3 109 133 146
3 87 109 146
3 110 87 86
3 130 134 110
3 110 86 139
3 110 139 130
3 111 8 138
4 138 0 137 111
3 2 137 0
3 147 137 2
3 136 147 131
3 61 60 123
3 53 61 123
