ply
format ascii 1.0
comment Created by Blender 2.77 (sub 0) - www.blender.org, source file: ''
element vertex 484
property float x
property float y
property float z
property float nx
property float ny
property float nz
property float s
property float t
element face 537
property list uchar uint vertex_indices
end_header
-2.089443 -3.398672 -2.710467 0.402234 0.501999 -0.765618 -0.238267 0.105337
-2.035046 -3.346205 -2.667235 0.443220 0.516617 -0.732536 -0.177944 0.182940
-1.893144 -3.416109 -2.592911 0.684469 0.085330 -0.723991 -0.194223 0.367460
-1.918946 -3.647965 -2.673943 0.572008 0.420881 -0.704001 -0.274071 0.308227
-2.416939 -3.172969 -1.596089 -0.954497 0.297891 0.013092 0.973781 1.433306
-2.432857 -3.268999 -1.416579 -0.574694 -0.198737 0.793847 1.217244 1.416745
-2.424445 -3.237294 -1.409510 -0.697409 -0.005432 0.716636 1.163667 1.431861
-2.227954 -3.518392 -3.103010 0.807428 0.479751 -0.343333 -0.411670 -0.172441
-2.260825 -3.519634 -2.850221 0.604450 0.708792 -0.363567 -0.441208 -0.021020
-2.104678 -3.636058 -2.973680 0.677694 0.649495 -0.344707 -0.357038 0.008720
-2.685851 -3.319719 -3.042595 -0.679861 -0.727012 -0.096011 1.116871 -0.115031
-2.779435 -3.161779 -3.259514 -0.791925 -0.576037 -0.202429 0.986853 -0.162572
-2.587234 -3.371758 -3.111053 -0.587024 -0.799158 -0.129307 1.199998 -0.196331
-2.576695 -3.399758 -2.843126 -0.619861 -0.781426 0.071383 1.227494 -0.024644
-2.720996 -3.272350 -2.921635 -0.771294 -0.630879 0.084017 1.072319 -0.024408
-1.909259 -3.854110 -2.745061 -0.488968 -0.704978 -0.513688 -0.324226 0.295467
-1.972225 -3.817963 -2.731742 -0.524918 -0.716056 -0.460067 -0.339383 0.289472
-2.005520 -3.757032 -2.863062 -0.448988 -0.850551 -0.273721 -0.339235 0.165930
-1.959305 -3.782091 -2.856043 -0.396893 -0.841517 -0.366436 -0.326415 0.188745
-1.654547 -3.957794 -2.780959 0.621662 0.000244 -0.783258 -0.266356 0.318362
-1.586500 -4.168932 -2.660047 -0.627400 -0.691580 -0.357830 -0.280008 0.397619
-1.645353 -4.077574 -2.693845 -0.458541 -0.649739 -0.606220 -0.285656 0.376019
-1.730390 -3.870091 -2.822778 0.646870 0.046388 -0.761162 -0.273668 0.271742
-2.004072 -3.886567 -2.639961 -0.584582 -0.751366 -0.306040 -0.364476 0.371862
-2.128524 -3.807529 -2.587340 -0.576586 -0.816919 -0.013367 -0.403697 0.398564
-2.153912 -3.760169 -2.631958 -0.554369 -0.741264 -0.378338 -0.409035 0.344890
-1.651487 -3.841447 -2.654492 -0.448347 -0.686087 0.572924 -0.247144 0.384691
-1.459293 -3.986329 -2.652749 0.855464 -0.510056 0.089389 -0.210386 0.394804
-1.618120 -3.758195 -2.501828 0.197638 0.506241 0.839412 -0.218219 0.431066
-1.693894 -3.788394 -2.584176 -0.518571 -0.624683 0.583789 -0.244190 0.400187
-1.408409 -4.290860 -2.517163 -0.591906 -0.705466 0.389752 -0.268889 0.459993
-1.408054 -4.279884 -2.493010 -0.606006 -0.630421 0.485092 -0.269214 0.471414
-1.457331 -4.222347 -2.487849 -0.630268 -0.583148 0.512467 -0.276662 0.474156
-1.471677 -4.235925 -2.513904 -0.616260 -0.644337 0.452773 -0.279520 0.462478
-1.716156 -4.067794 -2.586566 -0.511582 -0.780053 0.360179 -0.308730 0.438186
-1.579650 -4.144240 -2.548902 -0.612720 -0.612079 0.499893 -0.293955 0.451387
-1.562430 -4.125037 -2.517536 -0.560594 -0.605701 0.564623 -0.289556 0.466377
-1.696222 -4.051430 -2.555819 -0.505570 -0.711936 0.487350 -0.301939 0.455240
-1.428488 -4.283997 -2.557761 -0.577166 -0.796442 0.180395 -0.267109 0.442933
-1.516670 -4.227397 -2.565110 -0.645070 -0.742119 0.181829 -0.282982 0.441197
-1.444313 -4.274893 -2.582120 -0.558489 -0.826746 -0.067263 -0.265894 0.432970
-1.729367 -4.058509 -2.654314 -0.448805 -0.836116 -0.315317 -0.310425 0.397333
-1.725938 -3.995646 -2.722171 -0.301218 -0.651875 -0.695914 -0.298427 0.351401
-1.620841 -4.137266 -2.615727 -0.649861 -0.760002 0.004913 -0.296803 0.419887
-1.814291 -4.015507 -2.671543 -0.438856 -0.809015 -0.390942 -0.325460 0.378038
-1.895930 -3.967008 -2.661814 -0.554796 -0.758049 -0.342784 -0.341250 0.373701
-1.846292 -3.890257 -2.758381 -0.389508 -0.664602 -0.637623 -0.311329 0.300941
-1.798900 -3.946117 -2.743405 -0.326090 -0.599261 -0.731101 -0.308548 0.325143
-2.086446 -3.736821 -2.723341 -0.500229 -0.786920 -0.361248 -0.371418 0.258128
-2.029335 -3.777392 -2.727542 -0.553850 -0.744987 -0.371746 -0.353919 0.274847
-1.803184 -4.022057 -2.595896 -0.460158 -0.829279 0.316996 -0.323509 0.426932
-1.787784 -4.003374 -2.567247 -0.435163 -0.705771 0.559008 -0.316077 0.444758
-1.875756 -3.952210 -2.558808 -0.308359 -0.653035 0.691702 -0.332405 0.445206
-1.896430 -3.961243 -2.576069 -0.491043 -0.808985 0.323069 -0.340421 0.432833
-2.073579 -3.825026 -2.539083 -0.475661 -0.794580 0.377270 -0.381931 0.447384
-1.987710 -3.896247 -2.570791 -0.525956 -0.801965 0.283151 -0.360086 0.428662
-1.983461 -3.880585 -2.530507 -0.331919 -0.676229 0.657613 -0.355789 0.460227
-2.067709 -3.802889 -2.513192 -0.382061 -0.722160 0.576586 -0.375549 0.470336
-1.927006 -3.491063 -2.350362 0.308451 0.280740 0.908841 -0.243897 0.547840
-1.923585 -3.636425 -2.336023 -0.093570 -0.183752 0.978484 -0.283580 0.521876
-1.898486 -3.537473 -2.351304 0.158605 0.111728 0.980987 -0.249083 0.525817
-1.904176 -3.490705 -2.361416 0.176305 0.337107 0.924802 -0.235954 0.540165
-1.777974 -3.527281 -2.385412 0.535356 0.598956 0.595477 -0.208895 0.515418
-1.771396 -3.531007 -2.484856 0.758293 0.499527 -0.418836 -0.206356 0.437980
-1.874797 -3.427726 -2.642568 0.799280 0.580279 -0.156133 -0.187374 0.315892
-1.565947 -3.979222 -2.681493 0.540330 0.289041 -0.790216 -0.239096 0.376153
-2.453883 -3.508711 -1.610596 0.482223 -0.850734 0.208930 1.380144 1.255050
-2.437014 -3.484917 -1.690434 0.590960 -0.799676 -0.106082 1.386946 1.252239
-2.404217 -3.455884 -1.667204 0.729484 -0.680105 -0.072359 1.409897 1.284589
-2.417917 -3.481600 -1.614452 0.678365 -0.702933 0.213691 1.403868 1.278074
-2.180245 -3.156318 -2.121380 0.916654 -0.027619 0.398633 0.053339 1.255104
-2.247412 -3.168040 -1.923057 0.956420 -0.095767 0.275765 0.051852 1.411991
-2.296186 -3.296339 -1.970593 0.894833 -0.373455 0.244453 -0.424549 1.354373
-2.344419 -3.136550 -2.062070 -0.836238 0.505264 -0.213080 0.637348 1.426710
-2.284276 -2.980552 -1.924940 0.140019 0.976531 0.163457 0.437458 1.276432
-2.249154 -2.953646 -2.111230 -0.017396 0.999756 0.012909 0.398493 1.135274
-2.301122 -3.223701 -1.409509 0.667135 -0.435163 0.604602 1.656204 1.471036
-2.333969 -3.339838 -1.515805 0.749229 -0.596881 0.286966 1.480374 1.395825
-2.333907 -3.255059 -1.622507 0.971862 -0.234840 0.016877 1.458427 1.444534
-2.143665 -3.738737 -2.464027 -0.295694 -0.747063 0.595325 -0.400421 0.499783
-2.177765 -3.698336 -2.706321 -0.490249 -0.801843 -0.341533 -0.412267 0.248316
-2.132106 -3.717578 -2.714830 -0.421369 -0.830927 -0.363262 -0.390646 0.253037
-2.528472 -3.392234 -1.417848 -0.081637 -0.069247 0.994232 1.255576 1.328280
-2.624725 -3.448093 -1.493517 -0.641530 -0.336741 0.689200 1.231478 1.253862
-2.620805 -3.483941 -1.509406 -0.536576 -0.707175 0.460341 1.253544 1.238084
-2.605157 -3.512162 -1.537768 -0.485488 -0.813318 0.320566 1.276209 1.225334
-2.572631 -3.526152 -1.564849 -0.289987 -0.921842 0.256996 1.301558 1.223357
-2.532382 -3.532540 -1.589405 0.068636 -0.985351 0.156011 1.329935 1.226471
-1.766384 -3.992872 -2.520706 -0.422040 -0.629383 0.652455 -0.308432 0.474882
-1.468206 -4.187351 -2.459508 -0.655690 -0.587634 0.474044 -0.278153 0.489252
-1.566587 -4.082533 -2.467648 -0.517869 -0.625843 0.583178 -0.290308 0.493842
-3.124970 -2.272292 -2.940682 0.307505 0.847438 0.432722 0.730038 0.269410
-3.133116 -2.218741 -3.009507 0.173986 0.898770 0.402387 0.722615 0.246943
-3.127431 -2.190603 -3.109481 0.390637 0.913694 0.111972 0.717007 0.208759
-3.145765 -2.187471 -3.125543 -0.361705 0.919889 -0.151433 0.720035 0.205133
-3.165317 -2.200367 -3.145686 -0.840968 0.425764 -0.333842 0.725774 0.197769
-3.192678 -2.272304 -3.112444 -0.963805 0.227973 -0.137974 0.742906 0.203921
-3.219927 -2.326103 -3.044934 -0.990295 0.135929 -0.027985 0.757535 0.228235
-3.219603 -2.372664 -2.922907 -0.985565 0.111728 0.126988 0.766368 0.276796
-3.198170 -2.393347 -2.829657 -0.946684 0.080386 0.311899 0.766638 0.316966
-3.170135 -2.381778 -2.794037 -0.554796 0.244453 0.795221 0.759153 0.333105
-3.150192 -2.356195 -2.801399 0.066256 0.671377 0.738121 0.750345 0.329843
-3.137693 -2.317842 -2.844143 0.161992 0.837519 0.521836 0.740687 0.311222
-1.519325 -4.212132 -2.671247 0.509354 -0.567217 -0.647145 -0.262864 0.393765
-1.444313 -4.274893 -2.582120 -0.617664 -0.785699 -0.033387 -0.265894 0.432970
-2.038859 -3.742635 -2.848164 -0.531419 -0.818812 -0.216987 -0.350457 0.164792
-2.054909 -3.736906 -2.824473 -0.571825 -0.799829 -0.182379 -0.356493 0.177694
-1.786453 -3.878817 -2.791722 -0.275307 -0.666860 -0.692434 -0.291079 0.284710
-2.074822 -3.758391 -2.457080 -0.286386 -0.639454 0.713462 -0.370299 0.493426
-1.931947 -3.861722 -2.509501 -0.267342 -0.608386 0.747215 -0.333668 0.477579
-1.877838 -3.425303 -2.559122 0.639882 0.762841 0.092807 -0.197508 0.410868
-1.866918 -3.500507 -2.361919 0.374615 0.477737 0.794580 -0.227055 0.540635
-1.940218 -3.381890 -2.667351 0.515091 -0.289254 -0.806818 -0.175438 0.251365
-2.293311 -3.179245 -1.744990 0.975494 -0.008789 0.219703 0.014442 1.473365
-2.187381 -2.981174 -2.252045 0.117557 0.992889 -0.017853 0.308741 0.983706
-2.281253 -3.148961 -2.201767 -0.758812 0.589373 -0.277169 0.202600 1.380251
-2.207865 -3.736975 -2.516715 -0.470717 -0.848933 0.240181 -0.434393 0.460952
-2.312430 -3.148661 -1.578556 0.943052 0.330668 0.035737 2.388443 1.476012
-1.827434 -3.855037 -2.443577 -0.314615 -0.593310 0.740898 -0.297904 0.508194
-1.939355 -3.760245 -2.396244 -0.222449 -0.509995 0.830897 -0.313423 0.507871
-2.449140 -3.236839 -2.403821 0.033204 0.987457 0.154271 1.134507 0.829326
-2.460624 -3.260062 -2.241710 -0.075686 0.986877 0.142582 1.167770 1.129616
-2.370939 -3.204511 -2.221739 -0.544145 0.834742 -0.084078 1.150127 1.373077
-2.263369 -3.178900 -2.338724 -0.698599 0.715415 -0.009613 2.009148 1.244278
-2.466180 -3.499991 -1.694099 0.275521 -0.949583 -0.149480 1.366806 1.234137
-2.541795 -3.498701 -1.681993 -0.187231 -0.948363 -0.255989 1.308996 1.214130
-2.504646 -3.501824 -1.691705 -0.012055 -0.977477 -0.210578 1.337042 1.222218
-2.481223 -3.522356 -1.603541 0.323649 -0.928953 0.179632 1.362866 1.242424
-2.538692 -3.468024 -1.835916 -0.316874 -0.934538 -0.161840 1.295888 1.177308
-2.496736 -3.475270 -1.847059 -0.180792 -0.976440 -0.117771 1.331341 1.185796
-2.503294 -3.491085 -1.753864 -0.119236 -0.977874 -0.171819 1.333416 1.208718
-2.550107 -3.479174 -1.760880 -0.268868 -0.941588 -0.202643 1.293782 1.195051
-2.457219 -3.478420 -1.846583 0.005646 -0.999084 -0.041810 1.366240 1.198010
-2.419252 -3.473673 -1.840641 0.472365 -0.872372 0.125797 1.400115 1.214838
-2.432320 -3.476103 -1.759306 0.574511 -0.817286 -0.043947 1.388297 1.238522
-2.464195 -3.493208 -1.756439 0.176092 -0.977294 -0.117771 1.365929 1.219150
-2.627172 -3.164132 -1.947327 0.549516 0.831965 0.076174 0.982709 1.171230
-2.693640 -3.115226 -1.967973 0.425031 0.892697 0.149693 0.944260 1.098433
-2.638105 -3.219471 -1.682145 0.297342 0.870663 0.391797 1.039199 1.260164
-2.587934 -3.247706 -1.689188 0.353038 0.889950 0.288583 1.079274 1.289407
-2.742978 -3.109772 -1.983975 -0.290994 0.937681 0.189856 0.946680 1.050285
-2.694903 -3.179013 -1.724271 -0.201117 0.875118 0.440046 0.998634 1.210226
-2.361759 -3.508826 -2.058809 0.396039 -0.859584 0.322855 1.463689 1.077916
-2.392683 -3.488095 -1.945834 0.373882 -0.898160 0.231269 1.430195 1.161736
-2.437759 -3.482627 -1.943964 -0.145756 -0.985534 0.086398 1.385472 1.156002
-2.398232 -3.511865 -2.068086 -0.182684 -0.963439 0.195837 1.429967 1.062611
-2.449853 -3.491510 -2.075156 -0.402783 -0.909726 0.100497 1.377696 1.061006
-2.484081 -3.471315 -1.942031 -0.270913 -0.962554 -0.007660 1.339900 1.149141
-2.527854 -3.454888 -1.959667 -0.406232 -0.910733 -0.074068 1.296657 1.131147
-2.489281 -3.475902 -2.076614 -0.504624 -0.862972 0.023835 1.337694 1.057114
-2.423309 -3.538696 -2.353643 -0.732322 -0.679983 0.035951 1.414015 0.711472
-2.390892 -3.573312 -2.325832 -0.622059 -0.764977 0.166692 1.446421 0.737616
-2.419675 -3.532783 -2.210499 -0.515580 -0.845454 0.139073 1.415692 0.907038
-2.455281 -3.502570 -2.231109 -0.617450 -0.786004 0.030305 1.376885 0.897763
-2.337945 -3.597944 -2.305149 -0.257393 -0.890805 0.374371 1.489494 0.754818
-2.303427 -3.590714 -2.278009 0.371349 -0.787011 0.492630 1.516084 0.793307
-2.331471 -3.545074 -2.178891 0.376934 -0.833735 0.403455 1.493616 0.941420
-2.369343 -3.547334 -2.190616 -0.231056 -0.932188 0.278573 1.460977 0.924923
-2.218125 -3.673083 -2.413918 -0.066164 -0.735923 0.673788 -0.432481 0.574452
-2.275421 -3.614952 -2.336925 0.323527 -0.708029 0.627705 -0.464422 0.703793
-2.313458 -3.634539 -2.363743 -0.243294 -0.877194 0.413892 -0.492489 0.661963
-2.257010 -3.686676 -2.452425 -0.316630 -0.864742 0.389752 -0.457997 0.536606
-2.316701 -3.674611 -2.489093 -0.616688 -0.782769 0.083132 1.504815 0.490615
-2.357626 -3.622885 -2.385972 -0.610340 -0.769189 0.189123 1.475965 0.635483
-2.398900 -3.573456 -2.413815 -0.761376 -0.648122 0.014649 1.440155 0.607228
-2.368513 -3.604853 -2.520302 -0.760735 -0.639943 -0.108127 1.466846 0.442703
-2.060389 -3.637714 -2.387423 -0.172643 -0.408368 0.896329 -0.357698 0.562427
-2.153730 -3.595251 -2.364320 0.095218 -0.411176 0.906552 -0.397508 0.639782
-2.125879 -3.696974 -2.426347 -0.078158 -0.568773 0.818751 -0.394766 0.537031
-1.721101 -3.919745 -2.486979 -0.217658 -0.381085 0.898526 -0.282132 0.496551
-2.166428 -3.325630 -2.283457 0.222755 -0.509690 0.830988 -0.229045 0.946781
-2.244447 -3.343470 -2.160485 0.845393 -0.359539 0.394971 -0.355112 1.173001
-2.173453 -3.367174 -2.310945 0.623035 -0.286203 0.727928 -0.287958 0.889098
-2.165827 -3.340358 -2.288135 0.751091 -0.478774 0.454512 -0.238143 0.928511
-1.965178 -3.465012 -2.346374 0.305307 0.393811 0.866970 -0.247268 0.567075
-1.915098 -3.394241 -2.413256 0.722037 0.501022 0.477065 -0.200315 0.570717
-1.921447 -3.381787 -2.420360 0.695517 0.419752 0.583117 -0.196329 0.575950
-1.979797 -3.410629 -2.374738 0.391980 0.326243 0.860164 -0.228505 0.594137
-2.625242 -3.109916 -2.531997 0.609363 0.791742 0.041810 0.926601 0.397598
-2.446935 -3.214645 -2.549333 0.225257 0.967162 -0.117557 1.086013 0.189801
-2.627569 -3.166238 -2.749693 0.656178 0.744255 -0.124302 0.984935 0.039930
-2.702111 -3.049474 -2.709468 0.728050 0.685293 -0.015870 0.893712 0.170666
-1.470493 -4.255104 -2.619636 -0.764855 -0.605548 0.219611 -0.264046 0.417073
-2.491776 -3.283992 -1.605203 -0.334422 0.891018 0.306925 1.175879 1.359306
-2.448522 -3.259116 -1.601303 -0.785668 0.603259 0.137028 1.179173 1.394630
-2.438567 -3.231833 -1.726377 -0.736412 0.672750 0.071200 1.133922 1.395302
-2.492410 -3.259657 -1.726855 -0.137364 0.955809 0.259835 1.139764 1.346287
-2.280664 -3.136774 -1.392286 0.659993 -0.376354 0.650136 0.251515 1.463957
-2.243200 -3.062655 -1.381808 0.692404 0.619373 0.370006 0.308668 1.417661
-2.413640 -3.154501 -1.386401 -0.630116 0.368572 0.683432 0.909598 1.445934
-2.263369 -3.178900 -2.338724 -0.698599 0.715415 -0.009613 0.009148 1.244278
-2.193858 -2.992181 -2.349534 -0.071566 0.988342 -0.134312 0.307516 0.833345
-2.199643 -3.003075 -2.460892 -0.058840 0.950865 -0.303934 0.305408 0.561219
-2.272021 -3.155725 -2.482239 -0.486465 0.821406 -0.297647 0.142011 0.495275
-2.511581 -3.214914 -1.892444 0.113041 0.992798 0.039491 1.057594 1.300912
-2.374032 -3.418888 -1.614749 0.901639 -0.431593 -0.027619 1.434304 1.325761
-2.379806 -3.429037 -1.593361 0.806085 -0.534043 0.254952 1.429838 1.322353
-2.071221 -3.437097 -2.335244 0.216102 -0.029237 0.975921 -0.278654 0.647108
-2.394387 -3.430695 -1.795238 0.777306 -0.625874 0.063387 1.412838 1.269753
-2.611177 -3.319084 -1.536576 -0.419904 0.593005 0.687002 1.143075 1.292978
-2.586225 -3.302912 -1.545603 0.241554 0.845820 0.475600 1.138973 1.309253
-2.589476 -3.491671 -1.664579 -0.526322 -0.819514 -0.226478 1.275206 1.204692
-2.552577 -3.322926 -1.560781 0.215552 0.897214 0.385327 1.177341 1.319009
-2.600052 -3.460218 -1.758314 -0.576098 -0.797052 -0.180975 1.252124 1.183344
-2.343822 -3.530293 -2.129922 0.391278 -0.851283 0.349559 1.481412 0.997083
-2.403362 -3.112399 -1.490897 -0.659413 0.751640 -0.012238 0.773722 1.433064
-2.343726 -3.462435 -2.016545 0.818873 -0.488479 0.301309 1.477926 1.152632
-2.580239 -3.418029 -1.997496 -0.635548 -0.765160 -0.102756 1.237960 1.102298
-2.275421 -3.614952 -2.336925 0.323527 -0.708029 0.627705 1.535578 0.703793
-2.313458 -3.634539 -2.363743 -0.243294 -0.877194 0.413892 1.507511 0.661963
-2.273515 -3.495248 -2.215347 0.808252 -0.432417 0.399640 1.550802 0.943367
-2.492520 -3.470758 -2.335941 -0.708304 -0.705679 -0.017335 1.332629 0.761131
-2.319279 -3.648711 -2.593568 -0.681997 -0.681387 -0.265603 1.503327 0.350800
-2.263397 -3.715785 -2.555167 -0.587207 -0.802667 -0.104160 1.536000 0.413820
-2.249450 -3.533953 -2.311342 0.594989 -0.410993 0.690664 -0.433668 0.780778
-2.257010 -3.686676 -2.452425 -0.316630 -0.864742 0.389752 1.542003 0.536606
-2.458717 -3.502635 -2.524784 -0.729270 -0.679617 -0.078951 1.374006 0.422001
-2.428455 -3.486633 -2.665408 -0.697714 -0.714316 -0.053804 1.395436 0.171195
-2.324355 -3.589452 -2.703085 -0.646931 -0.747520 -0.150395 1.499852 0.184166
-2.238185 -3.647197 -2.724291 -0.521012 -0.818506 -0.241951 1.558015 0.199192
-2.157193 -3.676694 -2.829690 -0.485458 -0.844081 -0.227638 -0.396640 0.126548
-2.136145 -3.691123 -2.815177 -0.423200 -0.878719 -0.220740 -0.387659 0.149993
-2.301264 -3.601935 -2.878195 -0.418226 -0.892697 -0.167699 1.517287 0.019855
-2.064717 -3.198776 -2.313598 0.850276 0.172094 0.497360 -0.085523 0.855691
-2.091201 -3.237108 -2.312951 0.609302 -0.402356 0.683248 -0.134828 0.863828
-2.055844 -3.242979 -2.336085 0.478927 -0.314920 0.819391 -0.131008 0.792886
-1.796028 -3.708515 -2.344197 0.111850 0.041261 0.992859 -0.257804 0.515423
-1.765348 -3.794950 -2.365314 -0.267434 -0.537187 0.799921 -0.263120 0.508525
-1.513365 -4.200109 -2.600103 0.788049 0.604236 -0.117710 -0.271100 0.423903
-1.822615 -3.758134 -2.781725 0.615955 0.597766 -0.513047 -0.272347 0.262100
-1.835867 -3.808990 -2.865179 0.414289 0.041566 -0.909177 -0.289697 0.214184
-1.947610 -3.754624 -2.914627 0.389569 -0.124729 -0.912473 -0.315171 0.141868
-1.893435 -3.814952 -2.844342 -0.315317 -0.819361 -0.478683 -0.310101 0.218815
-1.840093 -3.831192 -2.842250 -0.153569 -0.763634 -0.627094 -0.296355 0.233714
-1.987865 -3.504085 -2.325147 0.026429 0.023286 0.999359 -0.269833 0.568179
-1.876123 -3.478379 -2.370945 0.570147 0.514237 0.640645 -0.222382 0.545294
-1.924086 -3.371170 -2.507470 0.805475 0.586657 -0.083651 -0.189471 0.466222
-1.960632 -3.361267 -2.400857 0.537034 0.192663 0.821223 -0.199600 0.597204
-1.938723 -3.357301 -2.418355 0.701437 0.326029 0.633747 -0.188809 0.586395
-2.456163 -3.315943 -1.422525 -0.239906 0.006378 0.970763 1.253917 1.387565
-2.486856 -3.352863 -1.422053 -0.107242 0.112308 0.987854 1.259049 1.359966
-2.355156 -3.372484 -1.543469 0.776788 -0.544847 0.315806 1.448986 1.369990
-2.293311 -3.179245 -1.744990 0.975494 -0.008789 0.219703 2.014442 1.473365
-2.417033 -3.206864 -1.819851 -0.358135 0.928617 0.096866 1.504256 1.381414
-2.386357 -3.178386 -1.918803 -0.866726 0.496475 -0.047273 1.683406 1.435896
-2.388661 -3.208555 -2.055961 -0.773400 0.633869 0.004944 1.205231 1.381773
-2.426646 -3.238321 -2.055050 -0.600330 0.779168 -0.180212 1.194461 1.316412
-2.444345 -3.233444 -2.021166 -0.538316 0.798456 -0.269539 1.165941 1.313182
-2.403379 -3.200776 -1.893680 -0.443831 0.895627 -0.028687 1.674271 1.409146
-2.398032 -3.211435 -2.086525 -0.707694 0.706290 -0.016724 1.125698 1.372771
-2.461136 -3.299578 -2.115312 -0.141392 0.985198 -0.096561 1.227591 1.207360
-2.435090 -3.263197 -2.103430 -0.705710 0.704611 -0.073977 1.185534 1.275634
-2.416729 -3.237550 -2.095054 -0.713858 0.700247 0.005432 1.155886 1.323764
-2.290788 -3.212319 -2.601465 0.104465 0.767602 -0.632313 -0.241853 -0.266404
-2.101421 -3.166187 -2.528892 0.427869 0.719535 -0.546922 -0.029160 0.367908
-2.290788 -3.212319 -2.601465 0.104465 0.767602 -0.632313 1.758147 -0.266404
-2.540292 -3.285126 -2.837135 0.607318 0.780145 -0.149937 1.143348 -0.121698
-2.089443 -3.398672 -2.710467 0.402234 0.501999 -0.765618 1.761733 0.105337
-2.260825 -3.519634 -2.850221 0.604450 0.708792 -0.363567 1.558792 -0.021020
-2.597088 -3.174257 -2.393431 0.547533 0.818506 0.173803 0.992589 0.699291
-2.273515 -3.495248 -2.215347 0.808252 -0.432417 0.399640 -0.449198 0.943367
-2.588575 -3.209201 -2.222337 0.575457 0.813807 0.080569 1.034276 0.992107
-2.475039 -3.276245 -2.053889 -0.031373 0.953459 -0.299875 1.180739 1.233143
-2.317875 -3.474517 -2.089743 0.882601 -0.322069 0.342472 1.504759 1.075581
-2.273280 -3.349668 -2.087258 0.882601 -0.322069 0.342472 1.599372 1.215883
-2.276956 -3.342098 -2.070665 0.882601 -0.322069 0.342472 1.589711 1.234380
-2.296186 -3.296339 -1.970593 0.894833 -0.373455 0.244453 1.575451 1.354373
-2.335772 -3.370461 -1.854438 0.913022 -0.383801 0.137974 1.480525 1.312624
-2.312430 -3.148661 -1.578556 0.943052 0.330668 0.035737 0.388443 1.476012
-2.638736 -3.437333 -1.649406 -0.803766 -0.584002 -0.113437 1.217871 1.211078
-2.670678 -3.388664 -1.618476 -0.900876 -0.431410 0.047548 1.172115 1.221244
-2.686472 -3.341471 -1.596885 -0.871975 0.052370 0.486679 1.133000 1.231868
-2.754026 -3.216009 -1.717629 -0.901120 0.213935 0.377087 1.026161 1.172853
-2.724113 -3.289286 -1.728828 -0.881161 -0.472640 0.010773 1.084455 1.179658
-2.657745 -3.392531 -1.732054 -0.793237 -0.599261 -0.107669 1.180147 1.191164
-2.377606 -3.050456 -1.619199 -0.132572 0.971282 0.197546 0.624106 1.397038
-2.410950 -3.151110 -1.725898 -0.953215 0.269906 -0.135929 0.895676 1.423139
-2.324476 -3.011064 -1.791625 0.102084 0.969878 0.221107 0.500691 1.346622
-2.662601 -3.334885 -2.017215 -0.753868 -0.648579 -0.104648 1.136136 1.070205
-2.384755 -3.119572 -1.907976 -0.923826 0.358501 -0.134159 0.748885 1.405236
-2.744420 -3.241951 -2.006047 -0.838191 -0.540880 -0.069643 1.046140 1.036030
-2.788862 -3.154435 -1.989213 -0.980102 0.178014 0.087680 0.982102 1.018017
-2.783762 -3.116507 -2.312284 -0.999695 0.022919 0.006104 0.955903 0.722962
-2.706584 -3.227031 -2.335552 -0.807703 -0.582507 -0.090945 1.038454 0.730981
-2.610942 -3.339778 -2.346830 -0.746147 -0.663930 -0.049165 1.161272 0.748533
-2.695935 -3.084684 -2.249504 0.453993 0.886258 0.091464 0.919637 0.846365
-2.745403 -3.070525 -2.310714 -0.356029 0.922575 0.148503 0.918651 0.738350
-2.317875 -3.474517 -2.089743 0.812037 -0.463118 0.355052 1.504759 1.075581
-2.303427 -3.590714 -2.278009 0.371349 -0.787011 0.492630 -0.483916 0.793307
-2.709562 -3.052820 -2.480418 0.459822 0.868465 0.185156 0.898105 0.502182
-2.767747 -3.029499 -2.503577 -0.519089 0.795923 0.311441 0.895510 0.470454
-2.131117 -3.187591 -2.208941 0.868129 -0.093265 0.487411 -0.011426 1.107886
-2.083619 -3.192721 -2.283804 0.863308 -0.084506 0.497513 -0.064429 0.927485
-2.781564 -3.078882 -2.518320 -0.983337 -0.146001 0.108036 0.930357 0.450501
-2.714250 -3.192239 -2.532107 -0.831416 -0.555559 0.007050 1.009493 0.418409
-2.805124 -3.045295 -2.655279 -0.913724 -0.326121 0.242286 0.912722 0.287278
-2.754763 -3.165960 -2.686433 -0.834864 -0.536821 0.121616 0.989185 0.217751
-2.618464 -3.330780 -2.526521 -0.758965 -0.650929 -0.014344 1.150174 0.414375
-2.630107 -3.317959 -2.719451 -0.734703 -0.672689 0.087405 1.134307 0.107554
-2.094205 -3.159405 -2.361223 0.767937 0.640492 -0.003021 -0.038122 0.805628
-2.123693 -3.127536 -2.408849 0.804132 0.586657 -0.095645 0.025496 0.721596
-2.801857 -2.991110 -2.624859 -0.620563 0.543718 0.565020 0.879812 0.327183
-2.759321 -2.985606 -2.617797 0.409558 0.884457 0.223457 0.865922 0.323163
-2.316701 -3.674611 -2.489093 -0.616688 -0.782769 0.083132 -0.495185 0.490615
-2.263397 -3.715785 -2.555167 -0.587207 -0.802667 -0.104160 -0.464000 0.413820
-2.842332 -3.006166 -2.709196 -0.822260 -0.466567 0.325877 0.896655 0.249108
-2.798054 -3.114144 -2.796834 -0.824305 -0.544877 0.153447 0.955660 0.129386
-2.791688 -2.950943 -2.693468 0.465346 0.805658 0.366497 0.854681 0.254311
-2.856554 -2.944957 -2.682978 -0.468062 0.168828 0.867397 0.867382 0.288225
-2.057939 -3.184971 -2.416414 0.679952 0.727073 -0.094974 -0.079950 0.648727
-1.964462 -3.272616 -2.409656 0.849818 0.515976 0.107303 -0.144421 0.613568
-1.998911 -3.282005 -2.558057 0.683035 0.674093 -0.281137 -0.147377 0.368373
-2.188337 -3.657226 -2.823335 -0.501602 -0.837550 -0.216437 -0.411617 0.115846
-2.238185 -3.647197 -2.724291 -0.521012 -0.818506 -0.241951 -0.441985 0.199192
-2.265843 -3.606176 -2.907979 -0.390820 -0.884060 -0.256203 -0.456642 0.002485
-2.232375 -3.611146 -2.924164 -0.395001 -0.883297 -0.252388 -0.433130 -0.001573
-2.198909 -3.616115 -2.940349 -0.493362 -0.842921 -0.214576 -0.410846 -0.003785
-2.463938 -3.475596 -2.857036 -0.592456 -0.805292 -0.020692 1.359133 -0.044217
-2.384031 -3.556307 -2.877697 -0.558397 -0.823328 -0.101382 1.449696 -0.012688
-2.438633 -3.449979 -3.092980 -0.514176 -0.838374 -0.180883 1.372073 -0.215686
-2.682795 -3.267075 -3.357750 -0.531510 -0.730674 -0.428449 1.075305 -0.246218
-2.455802 -3.394175 -3.263945 -0.382061 -0.858425 -0.342143 1.324141 -0.302404
-2.260628 -3.536357 -3.132586 0.138340 -0.700034 -0.700552 1.556259 -0.177322
-2.325367 -3.500018 -3.133982 -0.427656 -0.863704 -0.266640 1.498794 -0.210091
-2.494281 -3.211966 -3.324841 0.831141 0.556017 -0.005066 1.057983 -0.371136
-2.227954 -3.518392 -3.103010 0.807428 0.479751 -0.343333 1.588330 -0.172441
-2.519625 -3.294426 -3.419452 0.254860 -0.538072 -0.803400 1.167811 -0.349297
-2.495678 -3.260870 -3.368740 0.875820 0.418195 -0.240913 1.139275 -0.366073
-2.887585 -2.869616 -2.730302 0.405866 0.641926 0.650502 0.839486 0.265429
-2.929192 -2.887959 -2.717177 -0.475936 -0.041047 0.878506 0.856621 0.285566
-2.719727 -3.015203 -3.106210 0.804346 0.573412 0.155431 0.873953 -0.116899
-2.775875 -2.934136 -2.901086 0.818506 0.567431 0.089450 0.841033 0.064775
-2.868090 -3.061486 -3.047770 -0.849788 -0.525803 -0.036592 0.931391 -0.005157
-2.891754 -2.814885 -2.819866 0.746757 0.617817 0.246193 0.817832 0.204513
-2.921790 -2.953790 -2.872712 -0.832423 -0.549730 0.069369 0.884561 0.150610
-2.265843 -3.606176 -2.907979 -0.390820 -0.884060 -0.256203 1.543358 0.002485
-2.333971 -3.503589 -3.108589 -0.417890 -0.861446 -0.288552 1.490330 -0.196993
-2.299907 -3.554882 -3.008285 -0.410535 -0.859951 -0.303171 1.520601 -0.105961
-2.939680 -2.919670 -2.770935 -0.796655 -0.535386 0.280435 0.872393 0.240161
-3.016635 -2.809648 -2.798917 -0.849696 -0.490188 0.194220 0.843482 0.255769
-3.010057 -2.823345 -2.931039 -0.870418 -0.490921 -0.036592 0.847173 0.165002
-2.955749 -2.872822 -3.179420 -0.869594 -0.468612 -0.155492 0.855687 0.002286
-2.933358 -2.726352 -2.894965 0.778771 0.570574 0.260598 0.796083 0.182991
-2.954467 -2.771683 -2.761932 0.471389 0.534684 0.701315 0.816838 0.272824
-2.874291 -2.894732 -3.419235 -0.831385 -0.412824 -0.371929 0.847477 -0.127989
-2.867026 -2.770568 -3.038229 0.831477 0.523576 0.185675 0.794115 0.063589
-2.826082 -2.769244 -3.223167 0.834376 0.518021 0.188177 0.781490 -0.042224
-2.993857 -2.804699 -2.752859 -0.491287 -0.073092 0.867916 0.837216 0.284015
-2.585474 -3.045642 -3.424378 0.871822 0.481857 0.087680 0.848264 -0.307421
-2.676668 -2.879318 -3.523914 0.818384 0.574541 0.010041 0.774916 -0.233438
-2.568844 -3.095420 -3.462634 0.944975 0.289285 -0.152715 0.893366 -0.335562
-2.561954 -3.240491 -3.440582 -0.562334 -0.644337 -0.518204 1.078506 -0.340577
-2.566937 -3.280542 -3.377479 -0.411206 -0.760094 -0.503098 1.124277 -0.318464
-2.721075 -3.126393 -3.457247 -0.582568 -0.577074 -0.572344 0.956800 -0.251896
-2.759355 -2.985711 -3.556745 -0.519944 -0.277993 -0.807672 0.865996 -0.234176
-3.048624 -2.607294 -3.356470 -0.884915 -0.247719 -0.394360 0.786937 0.017431
-2.976897 -2.588571 -3.450276 -0.650075 -0.031983 -0.759178 0.765541 -0.029983
-2.921656 -2.557089 -3.470351 0.274606 0.569384 -0.774834 0.743250 -0.042868
-2.584847 -3.035914 -3.581812 0.604785 -0.056307 -0.794366 0.838729 -0.331470
-2.672101 -3.010813 -3.569279 -0.258461 -0.247597 -0.933714 0.855507 -0.282235
-2.920121 -2.568905 -3.405305 0.801630 0.597705 0.009705 0.745884 -0.024852
-2.630757 -2.957616 -3.552863 0.851680 0.518143 -0.078158 0.799867 -0.283396
-3.009380 -2.668463 -2.806064 0.656972 0.440931 0.611499 0.795724 0.269360
-3.053698 -2.713511 -2.763169 -0.449171 -0.085086 0.889340 0.818751 0.300081
-2.929763 -2.575459 -3.244464 0.845607 0.508377 0.162725 0.750152 0.036738
-2.949643 -2.605945 -3.106471 0.849605 0.477798 0.223243 0.763503 0.096333
-3.083117 -2.617924 -3.183294 -0.914914 -0.358379 -0.185614 0.796959 0.093427
-2.977469 -2.642545 -2.952589 0.835932 0.482742 0.261055 0.780727 0.176854
-3.078450 -2.690319 -2.937571 -0.901730 -0.428632 -0.055574 0.816563 0.201490
-3.067273 -2.716271 -2.810726 -0.890835 -0.427961 0.152348 0.822255 0.271407
-3.121294 -2.590747 -2.834260 -0.908109 -0.363933 0.207007 0.797249 0.282608
-3.143342 -2.560200 -2.928556 -0.922239 -0.385083 -0.034333 0.793706 0.238935
-3.126365 -2.497587 -3.138314 -0.925230 -0.291513 -0.242714 0.775520 0.145263
-3.032412 -2.564336 -2.882501 0.876492 0.375317 0.301401 0.772101 0.243206
-3.060996 -2.585173 -2.790862 0.611927 0.287454 0.736808 0.783689 0.299257
-3.102870 -2.463861 -3.235031 -0.913846 -0.131779 -0.384014 0.763213 0.106246
-3.018381 -2.511779 -3.028368 0.894955 0.389019 0.218390 0.755961 0.171656
-3.009269 -2.476422 -3.147707 0.891324 0.423017 0.162908 0.745662 0.120809
-3.101927 -2.608660 -2.780028 -0.455061 -0.129460 0.880978 0.798198 0.309278
-3.010456 -2.437519 -3.266832 0.837794 0.545488 -0.023194 0.737392 0.079856
-3.064908 -2.396689 -3.341351 0.049745 0.674215 -0.736808 0.741022 0.071645
-3.077622 -2.428350 -3.317678 -0.776421 0.105747 -0.621235 0.750287 0.076298
-2.319553 -3.480232 -3.186009 0.273568 -0.559557 -0.782311 1.504889 -0.243900
-2.383971 -3.427763 -3.261837 0.137272 -0.729453 -0.670095 1.424402 -0.299395
-2.452795 -3.370667 -3.339506 0.038148 -0.722800 -0.689993 1.310572 -0.333561
-2.263809 -3.564105 -3.026502 -0.392224 -0.876492 -0.279031 1.549692 -0.105824
-2.508384 -3.385332 -3.233170 -0.390088 -0.868831 -0.304819 1.266738 -0.276330
-2.171112 -3.636242 -2.942196 -0.543382 -0.817194 -0.192083 -0.396832 0.013680
-2.173359 -3.663008 -2.841939 -0.549211 -0.804102 -0.227515 -0.403542 0.105852
-2.301264 -3.601935 -2.878195 -0.418226 -0.892697 -0.167699 -0.482712 0.019855
-2.029797 -3.743228 -2.866899 -0.502945 -0.833918 -0.227119 -0.346540 0.152921
-2.016379 -3.745236 -2.885913 -0.449293 -0.856136 -0.255196 -0.341115 0.142810
-2.117185 -3.694787 -2.836807 -0.446242 -0.868709 -0.214942 -0.378166 0.137327
-2.142404 -3.663797 -2.907737 -0.474685 -0.851650 -0.222083 -0.385458 0.060815
-2.128834 -3.658796 -2.952357 -0.489364 -0.851711 -0.187292 -0.376544 0.029616
-2.104650 -3.696896 -2.853393 -0.478683 -0.853420 -0.206122 -0.372014 0.127554
-2.068682 -3.688425 -2.995970 0.210150 -0.431166 -0.877438 -0.351608 0.031879
-2.006963 -3.725265 -2.950942 0.341319 -0.363659 -0.866726 -0.332110 0.092637
-2.161435 -3.619502 -3.062452 0.239509 -0.554338 -0.797052 -0.386967 -0.068092
-2.260628 -3.536357 -3.132586 0.138340 -0.700034 -0.700552 -0.443741 -0.177322
-2.089933 -3.678013 -2.966295 -0.521317 -0.836909 -0.166662 -0.359892 0.040121
-2.161435 -3.619502 -3.062452 -0.556108 -0.819544 -0.138096 -0.386967 -0.068092
-2.319279 -3.648711 -2.593568 -0.681997 -0.681387 -0.265603 -0.496673 0.350800
-2.301122 -3.223701 -1.409509 0.667135 -0.435163 0.604602 -0.343796 1.471036
-2.272021 -3.155725 -2.482239 -0.486465 0.821406 -0.297647 2.142011 0.495275
-2.372459 -3.184948 -1.821226 -0.903867 0.406384 -0.133610 2.014442 1.473365
-2.384755 -3.119572 -1.907976 -0.923826 0.358501 -0.134159 2.748885 1.405236
-2.344419 -3.136550 -2.062070 -0.836238 0.505264 -0.213080 2.637348 1.426710
-2.172514 -3.244530 -2.191241 0.769646 -0.406079 0.492660 -0.136967 1.131671
-2.260808 -3.302921 -2.072878 0.870327 -0.363109 0.332652 -0.333168 1.267078
-2.153430 -3.277844 -2.262700 0.769433 -0.414655 0.485794 -0.157166 0.992579
-2.160122 -3.314984 -2.274391 0.721946 -0.422590 0.547868 -0.200883 0.957990
-2.142072 -3.278580 -2.280000 0.749229 -0.418806 0.513016 -0.168688 0.950793
-2.021147 -3.226388 -2.349922 0.721061 0.316385 0.616382 -0.116253 0.745842
-2.046972 -3.289001 -2.358572 0.409558 -0.128147 0.903226 -0.176493 0.730081
-2.280664 -3.136774 -1.392286 0.659993 -0.376354 0.650136 2.251515 1.463957
-1.889182 -3.448566 -2.384625 0.668355 0.521928 0.529954 -0.215419 0.552692
-1.902610 -3.419674 -2.399329 0.679830 0.528581 0.508316 -0.207819 0.561414
-1.955280 -3.323089 -2.414737 0.780694 0.255287 0.570330 -0.175017 0.598913
-1.958392 -3.307253 -2.417265 0.862911 0.168493 0.476424 -0.166000 0.596661
-1.967065 -3.309000 -2.405153 0.730796 0.065279 0.679434 -0.173036 0.620721
-1.987537 -3.303832 -2.388020 0.586901 -0.030702 0.809046 -0.168341 0.641006
-2.023838 -3.320514 -2.365137 0.438368 0.024171 0.898434 -0.190083 0.673814
-1.969988 -3.331836 -2.399262 0.583178 0.125278 0.802576 -0.189891 0.618064
-1.988188 -3.254930 -2.378386 0.731834 0.337901 0.591784 -0.133727 0.674078
-1.972934 -3.279749 -2.397655 0.800378 0.189886 0.568560 -0.158898 0.630576
-1.946169 -3.319918 -2.443502 0.883450 0.467544 0.029023 -0.170109 0.555385
-1.937745 -3.334033 -2.439619 0.889706 0.436415 0.134007 -0.175969 0.558989
-1.927312 -3.358436 -2.451845 0.905606 0.420454 0.055269 -0.186119 0.540032
-1.933300 -3.347162 -2.431268 0.862880 0.402722 0.305338 -0.182060 0.568950
-1.942451 -3.339455 -2.423232 0.783227 0.343852 0.517960 -0.180581 0.581941
-1.961130 -3.330643 -2.407893 0.679556 0.137486 0.720603 -0.179601 0.612584
-1.953109 -3.346630 -2.411666 0.631367 0.233741 0.739402 -0.188474 0.597580
-1.953362 -3.334852 -2.414252 0.663778 0.172948 0.727622 -0.180606 0.597555
-1.983133 -3.753678 -2.903492 -0.282693 -0.880642 -0.380108 -0.329106 0.141018
-2.086127 -3.710767 -2.842686 -0.529801 -0.826685 -0.189398 -0.365649 0.146208
-2.088063 -3.691379 -2.921264 -0.520005 -0.829432 -0.203833 -0.362156 0.077875
-2.561123 -3.204268 -3.481407 0.297250 -0.419996 -0.857448 1.031662 -0.351089
-2.571544 -3.160692 -3.504556 0.462325 -0.334513 -0.821162 0.974423 -0.348422
-2.576476 -3.120970 -3.523985 0.574175 -0.303873 -0.760216 0.926122 -0.344751
-2.632074 -3.151147 -3.475581 -0.351512 -0.594470 -0.723197 0.969639 -0.307875
-2.220320 -3.582490 -3.033729 -0.494125 -0.845515 -0.202246 1.580497 -0.089522
-2.220320 -3.582490 -3.033729 -0.494125 -0.845515 -0.202246 -0.419503 -0.089522
-2.263809 -3.564105 -3.026502 -0.392224 -0.876492 -0.279031 -0.450308 -0.105824
-2.299907 -3.554882 -3.008285 -0.410535 -0.859951 -0.303171 -0.479399 -0.105961
-2.625061 -3.319912 -2.400581 -0.798944 -0.599994 -0.040620 1.140520 0.650367
-2.613741 -3.336429 -2.413706 -0.778283 -0.627888 0.001129 1.157142 0.624169
-2.596110 -3.355479 -2.397077 -0.735557 -0.677358 -0.010834 1.181897 0.655558
-2.593403 -3.359065 -2.374635 -0.740318 -0.672140 -0.010041 1.186616 0.695613
-2.611314 -3.339332 -2.355725 -0.752495 -0.658559 -0.001465 1.160723 0.731991
-2.628416 -3.319158 -2.374045 -0.769738 -0.637196 -0.038118 1.138600 0.691377
-2.412339 -3.224878 -2.070788 -0.669424 0.742424 0.025575 1.160079 1.344592
-2.443931 -3.251866 -2.054635 -0.595885 0.751729 -0.282531 1.189560 1.286670
-2.449373 -3.267862 -2.085717 -0.595885 0.751729 -0.282531 1.183820 1.260442
-2.475039 -3.276245 -2.053889 -0.595885 0.751729 -0.282531 1.180739 1.233143
-2.444345 -3.233444 -2.021166 -0.570913 0.716253 -0.401298 1.165941 1.313182
-2.426646 -3.238321 -2.055050 -0.570913 0.716253 -0.401298 1.194461 1.316412
-2.443931 -3.251866 -2.054635 -0.570913 0.716253 -0.401298 1.189560 1.286670
-2.449373 -3.267862 -2.085717 -0.664113 0.653310 -0.363445 1.183820 1.260442
-2.443931 -3.251866 -2.054635 -0.578631 0.727073 -0.369488 1.189560 1.286670
-2.255603 -3.305830 -2.088808 0.865323 -0.360215 0.348513 -0.334033 1.246468
-2.180245 -3.156318 -2.121380 0.865323 -0.360215 0.348513 0.053339 1.255104
-2.260808 -3.302921 -2.072878 0.865323 -0.360215 0.348513 -0.333168 1.267078
-2.252998 -3.319269 -2.111870 0.872433 -0.363109 0.327067 -0.335221 1.218172
-2.276956 -3.342098 -2.070665 0.880703 -0.332011 0.337748 1.589711 1.234380
-2.244447 -3.343470 -2.160485 0.845393 -0.359539 0.394971 1.644888 1.173001
-2.265317 -3.347737 -2.108397 0.887082 -0.319651 0.332957 1.610646 1.194296
-2.256359 -3.332618 -2.116763 0.881741 -0.341777 0.325083 1.628901 1.214761
-2.271802 -3.318551 -2.060086 0.880428 -0.344768 0.325449 1.608176 1.268895
-2.271802 -3.318551 -2.060086 0.880428 -0.344768 0.325449 -0.391824 1.268895
-2.256359 -3.332618 -2.116763 0.881741 -0.341777 0.325083 -0.371100 1.214761
-2.317875 -3.474517 -2.089743 0.894264 -0.325532 0.307117 1.504759 1.075581
-2.265317 -3.347737 -2.108397 0.894264 -0.325532 0.307117 1.610646 1.194296
-2.273280 -3.349668 -2.087258 0.894264 -0.325532 0.307117 1.599372 1.215883
-2.252998 -3.319269 -2.111870 0.873306 -0.371508 0.315147 -0.335221 1.218172
-2.180245 -3.156318 -2.121380 0.873306 -0.371508 0.315147 0.053339 1.255104
-2.255603 -3.305830 -2.088808 0.873306 -0.371508 0.315147 -0.334033 1.246468
-2.144413 -3.319185 -2.311653 0.485855 -0.121830 0.865474 -0.233893 0.880176
-2.093084 -3.273009 -2.325813 0.433637 -0.183477 0.882199 -0.174267 0.829588
-2.160122 -3.314984 -2.274391 -0.622524 -0.259894 0.738186 -0.200883 0.957990
-2.166428 -3.325630 -2.283457 -0.622524 -0.259894 0.738186 -0.229045 0.946781
-2.165827 -3.340358 -2.288135 -0.622524 -0.259894 0.738186 -0.238143 0.928511
-2.116637 -3.256991 -2.296476 0.710440 -0.470107 0.523667 -0.151758 0.907310
-2.102863 -3.254494 -2.312667 0.609973 -0.401105 0.683370 -0.156540 0.867411
4 0 1 2 3
3 4 5 6
3 7 8 9
3 10 11 12
3 10 13 14
4 15 16 17 18
3 19 20 21
3 21 22 19
3 23 24 25
4 26 27 28 29
4 30 31 32 33
4 34 35 36 37
4 38 39 20 40
4 41 42 21 43
4 44 45 46 47
4 25 48 49 16
4 50 51 52 53
4 54 55 56 57
4 58 59 60 61
4 62 63 2 64
3 27 26 65
4 33 39 38 30
4 43 35 34 41
4 66 67 68 69
3 70 71 72
3 73 74 75
3 76 77 78
4 47 42 41 44
4 37 51 50 34
4 23 55 54 24
4 53 45 44 50
3 57 79 54
4 48 25 80 81
3 28 27 3
3 82 83 84
3 84 85 86
3 86 87 82
3 84 86 82
3 36 88 37
4 32 36 35 33
4 32 31 89 90
3 91 92 93
3 93 94 95
3 95 96 97
3 97 98 99
3 99 100 101
3 101 102 91
3 91 93 95
3 95 97 99
3 99 101 91
3 91 95 99
4 21 20 39 43
3 21 42 22
3 20 103 104
3 23 16 15
3 15 46 45
3 15 45 23
4 105 16 49 106
4 46 107 22 47
3 56 108 57
4 52 56 55 53
3 52 51 109
4 64 110 111 62
4 2 1 112 64
3 2 63 3
3 72 71 113
4 75 114 115 73
4 24 54 79 116
3 76 78 117
4 44 41 34 50
4 109 88 118 119
4 120 121 122 123
3 124 67 66
4 125 126 127 87
4 128 129 130 131
4 132 133 134 135
4 136 137 138 139
4 137 140 141 138
4 142 143 144 145
4 146 147 148 149
4 150 151 152 153
4 154 155 156 157
4 158 159 160 161
4 162 163 164 165
4 108 166 167 168
3 65 3 27
4 88 90 169 118
4 43 39 33 35
4 170 171 172 173
3 174 58 175
3 175 176 177
3 175 177 174
4 178 179 180 181
3 104 103 182
4 183 184 185 186
3 5 187 188
3 188 189 6
3 188 6 5
4 119 166 108 109
3 42 47 22
4 37 88 109 51
3 118 59 119
4 53 55 23 45
4 190 191 192 193
4 190 115 114 191
4 139 186 194 136
4 68 195 196 69
3 167 166 197
4 67 134 198 68
4 125 131 130 126
4 124 135 134 67
4 141 199 200 138
4 66 127 126 124
4 87 86 201 125
4 139 138 200 202
4 143 133 132 144
4 147 129 128 148
3 134 133 198
4 135 130 129 132
3 131 203 128
3 204 157 156
4 149 153 152 146
4 6 189 205 4
3 143 142 206
4 144 147 146 145
3 148 207 149
4 208 155 154 209
4 163 151 150 164
3 156 155 210
4 157 152 151 154
3 153 211 150
4 161 116 79 158
4 165 212 213 162
3 167 214 158
3 159 158 214
4 209 163 162 215
3 164 216 165
3 212 217 218
3 212 218 219
4 168 79 57 108
4 81 80 220 221
3 218 222 219
3 223 224 225
3 226 62 111
3 28 3 63
3 59 227 226
3 226 111 60
3 226 60 59
4 65 228 229 3
4 169 227 59 118
4 32 90 88 36
3 229 228 103
3 103 19 22
3 103 22 229
3 19 103 20
3 8 229 22
3 230 231 9
3 8 22 230
3 230 9 8
3 232 231 233
4 52 109 108 56
3 166 119 59
3 59 234 197
3 59 197 166
4 235 111 110 236
4 8 0 3 229
4 237 177 176 238
4 239 184 183 240
4 78 241 196 195
3 242 117 78
4 243 194 186 185
3 244 245 246
3 246 247 248
3 246 248 244
3 249 122 121
3 121 250 251
3 252 249 121
3 121 251 252
4 0 253 254 1
3 25 16 23
3 255 179 193
4 179 255 256 180
4 255 257 258 256
4 121 120 178 259
4 197 172 214 167
4 172 171 260 214
4 250 121 259 261
3 136 194 262
3 262 250 261
3 262 261 136
3 263 264 265
4 266 267 198 206
4 186 139 202 183
4 267 195 68 198
3 82 183 202
3 82 200 199
3 77 241 78
4 189 188 268 205
4 86 85 269 201
4 85 84 270 269
4 83 82 199 271
4 84 83 271 270
3 82 202 200
4 270 271 272 273
4 269 270 273 274
4 201 269 274 203
4 205 275 276 4
4 205 268 113 275
4 271 199 141 272
4 124 126 130 135
4 125 201 203 131
4 128 203 207 148
4 132 129 147 144
4 198 133 143 206
3 277 275 113
3 113 71 74
3 113 74 277
4 203 274 278 207
4 276 275 277 279
4 274 273 280 278
4 272 141 140 281
4 273 272 281 280
4 280 281 282 283
4 278 280 283 284
4 137 136 261 285
4 207 278 284 211
4 73 279 277 74
4 281 140 286 282
4 140 137 285 286
4 287 204 156 210
4 145 146 152 157
4 149 207 211 153
4 150 211 216 164
4 154 151 163 209
3 260 288 214
4 286 285 289 290
3 114 75 291
3 292 223 114
3 291 292 114
4 282 286 290 293
4 283 282 293 294
4 285 261 259 289
4 294 293 295 296
4 297 294 296 298
4 216 297 298 217
3 191 114 223
3 299 300 191
3 223 299 191
4 293 290 301 295
4 290 289 302 301
4 289 259 178 302
4 161 303 304 116
4 165 216 217 212
4 296 295 305 306
4 298 296 306 14
4 302 178 181 307
4 217 298 14 13
4 191 300 254 192
3 304 80 25
4 295 301 308 305
4 301 302 307 308
3 254 300 309
3 309 310 311
3 311 1 254
3 309 311 254
3 182 103 228
3 312 80 313
3 313 314 315
3 315 316 312
3 313 315 312
4 218 217 317 318
4 319 12 11 320
3 321 322 323
3 324 258 325
3 325 326 327
3 325 327 324
4 308 307 328 329
4 256 258 324 330
4 180 256 330 331
4 10 14 332 11
4 181 180 331 333
4 14 306 334 332
3 335 222 318
3 318 319 336
3 336 337 335
3 318 336 335
4 305 308 329 338
4 306 305 338 334
4 307 181 333 328
4 334 338 339 340
4 332 334 340 341
4 328 333 342 343
4 11 332 341 344
4 333 331 345 342
4 331 330 346 345
4 338 329 347 339
4 329 328 343 347
3 346 330 324
3 348 349 346
3 324 348 346
4 348 324 327 350
3 351 326 352
3 353 320 11
3 11 344 354
3 11 354 353
4 354 344 355 356
3 357 358 359
3 359 354 356
3 359 356 357
3 360 349 361
3 361 358 357
3 361 357 360
4 347 343 362 363
4 346 349 360 364
4 345 346 364 365
4 344 341 366 355
4 342 345 365 367
4 341 340 368 366
4 339 347 363 369
4 340 339 369 368
4 343 342 367 362
4 368 369 370 371
4 366 368 371 372
4 362 367 373 374
4 355 366 372 375
4 367 365 376 373
4 365 364 377 376
4 369 363 378 370
4 363 362 374 378
4 364 360 379 377
4 360 357 380 379
4 357 356 381 380
4 356 355 375 381
4 381 375 96 95
4 380 381 95 94
4 379 380 94 93
4 378 374 101 100
4 377 379 93 92
4 376 377 92 91
4 375 372 97 96
4 373 376 91 102
4 372 371 98 97
4 370 378 100 99
4 371 370 99 98
4 374 373 102 101
3 325 322 382
3 382 383 384
3 384 326 325
3 325 382 384
4 337 336 323 385
4 336 319 320 386
4 12 319 318 317
3 318 222 218
3 317 217 13
4 312 316 387 388
3 314 313 389
3 390 391 17
4 392 393 394 395
4 396 9 231 397
4 13 10 12 317
3 398 399 7
3 7 9 396
3 7 396 398
4 398 396 400 401
4 25 24 116 304
4 304 402 313 80
4 268 188 187 403
3 28 63 29
4 253 193 192 254
3 214 288 159
4 167 158 79 168
3 123 404 179
3 179 178 120
3 123 179 120
4 74 71 70 75
3 75 70 291
3 240 183 82
3 184 239 5
4 185 184 4 276
4 405 185 276 279
4 245 244 406 407
4 122 249 73 115
3 123 122 115
3 184 5 4
4 70 171 408 291
3 409 70 72
3 410 411 412
4 413 223 225 414
4 242 78 195 267
3 266 242 267
4 69 196 239 240
3 66 69 240
3 240 82 87
3 87 127 66
3 240 87 66
4 239 196 241 5
3 5 241 77
3 5 77 76
3 5 76 415
3 61 60 111
3 111 235 416
3 111 416 61
3 61 416 417
3 417 175 58
3 417 58 61
4 177 197 234 174
4 234 59 58 174
3 418 419 420
3 421 422 197
3 197 177 237
3 237 423 421
3 197 237 421
3 414 197 422
3 424 425 310
3 310 309 413
3 424 310 413
4 309 300 299 413
4 110 64 112 236
4 112 1 311 236
4 311 310 426 236
4 426 427 428 236
4 428 175 417 236
4 417 416 235 236
3 176 175 428
3 428 429 238
3 176 428 238
4 428 427 430 429
4 431 423 237 432
4 419 310 425 420
4 425 424 421 420
4 421 423 431 420
3 429 430 238
3 433 431 432
4 420 431 433 418
3 424 422 421
4 414 422 424 413
3 432 237 238
4 430 433 432 238
3 418 433 430
3 418 430 427
3 427 426 419
3 427 419 418
3 426 310 419
4 17 391 434 18
3 18 231 232
4 232 46 15 18
4 49 48 435 106
4 435 436 105 106
4 220 393 392 221
4 392 48 81 221
3 233 22 107
4 107 46 232 233
4 323 336 386 321
4 386 320 352 321
3 352 326 321
4 384 383 382 321
4 327 326 437 350
4 437 438 439 350
4 439 358 361 350
4 361 349 348 350
4 352 320 353 440
4 353 354 359 440
3 359 439 440
4 439 438 437 440
4 323 322 441 385
4 442 316 315 443
4 315 314 444 443
4 387 393 220 388
4 220 80 312 388
4 17 16 105 390
4 105 436 400 390
4 394 436 435 395
4 435 48 392 395
4 400 436 394 401
4 394 393 387 401
4 387 316 442 401
4 442 399 398 401
3 434 231 18
3 233 231 230
4 400 396 391 390
3 434 391 397
3 397 231 434
3 230 22 233
3 397 391 396
3 382 322 321
3 359 358 439
3 437 326 351
3 321 326 384
3 440 351 352
3 437 351 440
4 445 294 297 446
4 216 447 446 297
4 211 448 447 216
4 211 284 449 448
4 284 283 450 449
4 445 450 283 294
3 249 245 407
4 249 451 246 245
3 452 453 454
3 455 456 457
3 249 252 451
3 458 250 262
3 251 250 458
4 194 247 459 262
4 248 247 194 243
3 405 243 185
3 405 248 243
3 244 248 405
3 406 244 405
3 460 461 462
3 171 70 463
4 287 464 266 206
4 206 142 204 287
4 145 157 204 142
4 465 466 287 210
3 465 467 466
3 266 464 468
3 469 409 72
3 171 463 470
3 471 472 473
3 474 475 476
3 173 172 477
3 225 478 414
4 410 408 170 411
3 479 480 481
3 223 292 412
3 482 224 223
3 412 482 223
3 482 483 224
3 408 171 170
4 291 410 412 292
3 291 408 410
4 225 224 483 478
3 197 414 478
3 478 477 172
3 478 172 197
3 299 223 413
